<?xml version="1.0" standalone="no"?>
<!DOCTYPE svg PUBLIC "-//W3C//DTD SVG 20010904//EN"
 "http://www.w3.org/TR/2001/REC-SVG-20010904/DTD/svg10.dtd">
<svg version="1.0" xmlns="http://www.w3.org/2000/svg"
 width="500.000000pt" height="500.000000pt" viewBox="0 0 500.000000 500.000000"
 preserveAspectRatio="xMidYMid meet">

<g transform="translate(0.000000,500.000000) scale(0.100000,-0.100000)"
fill="#000000" stroke="none">
<path d="M379 4578 c-5 -10 -6 -428 -2 -492 l6 -78 136 4 c98 4 146 10 171 22
19 9 26 13 15 10 -11 -4 -84 -9 -162 -12 l-143 -4 -1 248 c0 137 -2 259 -5
271 -3 16 2 23 19 26 19 4 18 4 -5 6 -16 0 -29 0 -29 -1z"/>
<path d="M1945 4568 c-3 -7 -4 -135 -3 -283 l3 -270 130 0 c109 1 137 4 175
21 102 47 160 149 160 278 0 34 -4 67 -9 75 -6 8 -8 -13 -5 -55 l3 -69 -9 68
c-6 37 -17 81 -25 97 -18 34 -19 44 -5 35 6 -3 10 -1 10 5 0 7 -6 10 -14 7 -8
-3 -22 4 -33 15 -10 11 -34 29 -53 39 -27 15 -29 18 -10 14 23 -5 22 -4 -5 12
-41 23 -302 33 -310 11z m101 -103 c-3 -8 -1 -15 4 -15 6 0 10 5 10 10 0 6 24
10 53 10 70 0 136 -33 159 -80 23 -45 24 -140 2 -186 -28 -58 -68 -79 -151
-79 -41 0 -74 -4 -75 -10 -1 -5 -5 69 -8 165 -5 168 -4 200 7 200 3 0 3 -7 -1
-15z"/>
<path d="M2054 4295 c0 -82 2 -115 3 -72 2 43 2 110 0 150 -1 40 -3 5 -3 -78z"/>
<path d="M648 4563 c7 -3 16 -2 19 1 4 3 -2 6 -13 5 -11 0 -14 -3 -6 -6z"/>
<path d="M1754 4280 l1 -270 50 0 c36 1 46 3 34 10 -9 5 -26 8 -37 5 -12 -2
-24 0 -27 6 -4 5 -6 124 -5 264 0 140 -3 255 -8 255 -5 0 -9 -121 -8 -270z"/>
<path d="M1854 4290 c0 -146 2 -205 3 -132 2 72 2 192 0 265 -1 72 -3 13 -3
-133z"/>
<path d="M2290 4537 c0 -2 15 -14 33 -27 l32 -23 -24 26 c-21 23 -41 35 -41
24z"/>
<path d="M490 4473 c0 -5 22 -6 50 -5 121 9 200 -57 200 -168 0 -57 -20 -113
-53 -148 l-22 -24 28 13 c15 7 25 14 23 17 -3 2 1 11 9 19 22 22 38 92 33 149
-8 100 -78 153 -200 154 -38 0 -68 -3 -68 -7z"/>
<path d="M2376 4437 c3 -10 9 -15 12 -12 3 3 0 11 -7 18 -10 9 -11 8 -5 -6z"/>
<path d="M3880 4424 c-19 -8 -43 -17 -52 -20 -9 -3 -19 -13 -21 -23 -3 -11 -5
-10 -6 6 0 12 5 24 12 26 6 3 -12 6 -41 6 l-52 1 2 -202 3 -203 53 -3 52 -3 0
140 c0 131 1 142 22 161 27 25 70 26 91 2 14 -15 17 -42 17 -161 l0 -142 53 3
52 3 3 140 c3 153 11 175 62 175 55 0 59 -12 62 -170 l3 -145 50 0 50 0 1 160
0 160 -5 -150 -6 -150 -5 155 c-3 85 -10 164 -15 174 -7 15 -5 18 6 11 8 -5 3
4 -10 18 -14 15 -29 27 -35 27 -5 0 -1 -7 10 -15 10 -8 14 -15 8 -15 -6 0 -20
11 -32 25 -12 14 -27 25 -33 25 -34 0 -95 -28 -124 -56 l-34 -32 -15 21 c-45
65 -70 75 -126 51z m-63 -326 c-2 -35 -3 -9 -3 57 0 66 1 94 3 63 2 -32 2 -86
0 -120z m240 -10 c-2 -35 -3 -7 -3 62 0 69 1 97 3 63 2 -35 2 -91 0 -125z"/>
<path d="M4483 4423 c-76 -26 -133 -118 -133 -211 0 -72 50 -156 112 -188 43
-22 136 -18 183 9 53 30 86 79 79 120 -3 26 -2 28 5 12 9 -18 10 -18 10 7 1
15 -4 30 -9 33 -6 4 -8 10 -6 13 8 13 -14 105 -31 131 -10 14 -17 29 -16 32 4
11 -31 36 -66 48 -44 14 -76 13 -128 -6z m183 -41 c-4 -3 -14 2 -24 12 -16 18
-16 18 6 6 13 -6 21 -14 18 -18z m-54 -74 c28 -30 30 -37 26 -95 -3 -48 -9
-68 -27 -87 -31 -33 -64 -40 -104 -21 l-32 16 24 -21 c25 -22 21 -26 -11 -9
-26 14 -48 69 -47 116 l2 38 7 -35 c8 -35 8 -34 8 10 -1 48 26 106 52 114 45
12 73 5 102 -26z"/>
<path d="M1078 4423 c6 -2 18 -2 25 0 6 3 1 5 -13 5 -14 0 -19 -2 -12 -5z"/>
<path d="M3055 4423 c-10 -3 -29 -12 -41 -19 -19 -13 -22 -13 -27 1 -5 11 -21
15 -58 15 -43 0 -50 -3 -45 -16 3 -9 6 -101 6 -205 l0 -189 51 0 50 0 -3 134
-3 135 28 25 c37 35 79 34 106 0 19 -24 21 -40 21 -160 l0 -134 50 0 50 0 -2
163 -2 162 -6 -150 -6 -150 -2 152 -2 152 -34 35 c-18 20 -29 36 -24 36 6 0
24 -15 41 -32 24 -26 28 -27 16 -8 -29 47 -99 69 -164 53z m-75 -33 c0 -11 -2
-20 -4 -20 -2 0 -6 9 -9 20 -3 11 -1 20 4 20 5 0 9 -9 9 -20z m-3 -332 c-2
-13 -4 -3 -4 22 0 25 2 35 4 23 2 -13 2 -33 0 -45z"/>
<path d="M3405 4415 c-44 -16 -85 -56 -85 -85 0 -11 12 -22 31 -29 45 -16 55
-14 83 14 34 34 80 34 102 0 24 -37 13 -51 -48 -58 -131 -15 -188 -54 -188
-129 0 -50 19 -82 60 -103 42 -22 116 -19 155 5 l33 20 5 -20 c5 -18 12 -21
54 -18 26 2 47 6 46 11 -2 4 -4 69 -5 145 l-2 137 -6 -135 -6 -135 -2 140 c-2
161 -14 199 -71 226 -23 11 -30 18 -20 22 32 13 -99 5 -136 -8z m145 -240 c0
-48 -39 -85 -89 -85 -27 0 -32 -3 -21 -10 13 -9 13 -10 -1 -10 -19 0 -44 20
-52 41 -11 33 77 89 156 98 4 1 7 -15 7 -34z"/>
<path d="M1015 4410 c-3 -5 -2 -10 4 -10 5 0 13 5 16 10 3 6 2 10 -4 10 -5 0
-13 -4 -16 -10z"/>
<path d="M2430 4417 c0 -1 16 -43 36 -92 65 -165 104 -273 110 -303 8 -40 -10
-70 -49 -80 -29 -7 -32 -12 -35 -51 l-3 -43 48 7 c56 8 71 15 99 47 28 31 108
234 98 249 -4 7 -3 9 4 5 6 -3 13 4 17 16 7 24 18 52 36 92 6 13 8 29 5 35 -4
6 -3 11 2 11 6 0 15 12 20 28 5 15 13 36 18 46 6 15 4 17 -7 11 -12 -8 -12 -6
0 9 13 16 11 17 -39 14 l-53 -3 -37 -105 c-53 -152 -50 -147 -67 -124 -15 21
-17 15 -3 -20 5 -14 6 -26 1 -26 -4 0 -12 15 -18 33 -12 37 -68 192 -79 221
-6 15 -4 17 6 11 9 -5 11 -4 6 3 -6 10 -116 18 -116 9z"/>
<path d="M3578 4408 c12 -6 22 -15 22 -20 0 -4 6 -8 13 -8 6 1 1 10 -12 20
-13 11 -28 20 -35 19 -6 0 -1 -5 12 -11z"/>
<path d="M3981 4417 c2 -1 15 -11 29 -22 l25 -20 -19 23 c-11 12 -24 22 -29
22 -6 0 -8 -1 -6 -3z"/>
<path d="M963 4371 c-92 -91 -59 -300 53 -347 45 -19 148 -18 185 2 17 8 28
18 25 21 -3 3 -13 0 -22 -8 -27 -22 -151 -19 -193 6 -59 35 -74 65 -79 158 -5
89 6 126 51 175 30 32 14 27 -20 -7z"/>
<path d="M1376 4374 c-9 -8 -16 -19 -16 -24 0 -5 -3 -15 -6 -24 -4 -11 5 -18
35 -27 37 -11 42 -10 71 15 46 38 85 34 109 -11 15 -29 14 -32 -11 -43 -22 -8
-22 -9 5 -9 24 -1 27 2 27 32 0 43 -26 67 -72 67 -23 0 -42 -8 -56 -23 -16
-17 -30 -22 -51 -19 -37 5 -46 27 -26 58 18 28 14 31 -9 8z"/>
<path d="M4690 4378 c0 -4 9 -22 20 -40 11 -18 20 -28 20 -23 0 6 -9 24 -20
40 -11 17 -20 27 -20 23z"/>
<path d="M3620 4361 c0 -5 5 -13 10 -16 6 -3 10 -2 10 4 0 5 -4 13 -10 16 -5
3 -10 2 -10 -4z"/>
<path d="M2566 4340 c3 -14 11 -32 16 -40 6 -10 7 -7 2 10 -3 14 -11 32 -16
40 -6 10 -7 7 -2 -10z"/>
<path d="M1044 4328 l-19 -22 25 17 c47 33 102 17 125 -36 l14 -32 1 28 c0 41
-32 67 -83 67 -33 0 -49 -6 -63 -22z"/>
<path d="M853 4305 c0 -22 2 -30 4 -17 2 12 2 30 0 40 -3 9 -5 -1 -4 -23z"/>
<path d="M4731 4274 c0 -11 3 -14 6 -6 3 7 2 16 -1 19 -3 4 -6 -2 -5 -13z"/>
<path d="M2600 4245 c0 -5 5 -17 10 -25 5 -8 10 -10 10 -5 0 6 -5 17 -10 25
-5 8 -10 11 -10 5z"/>
<path d="M1396 4231 c-4 -5 3 -7 14 -4 23 6 26 13 6 13 -8 0 -17 -4 -20 -9z"/>
<path d="M1360 4207 c-19 -15 -40 -61 -40 -88 0 -30 42 -87 73 -100 38 -16
134 -7 155 15 16 17 16 17 -17 1 -42 -21 -112 -16 -150 12 -15 11 -30 36 -36
58 -8 31 -6 44 12 76 12 22 21 39 20 39 -1 0 -9 -6 -17 -13z"/>
<path d="M1517 4209 c-21 -5 -48 -16 -60 -25 -20 -15 -20 -16 -2 -9 18 6 116
35 123 35 1 0 2 -16 2 -35 0 -26 -7 -43 -26 -60 -29 -27 -21 -34 9 -10 36 27
39 117 4 114 -7 -1 -29 -5 -50 -10z"/>
<path d="M1016 4193 c-15 -16 3 -18 130 -15 75 2 133 6 130 9 -8 8 -252 13
-260 6z"/>
<path d="M565 4120 l-80 -6 77 -2 c43 -1 80 2 83 8 3 6 5 9 3 8 -2 -1 -39 -5
-83 -8z"/>
<path d="M1150 4105 c-14 -8 -20 -14 -14 -15 5 0 19 7 30 15 24 18 16 19 -16
0z"/>
<path d="M750 4069 c-22 -18 -22 -19 -3 -10 12 6 25 16 28 21 9 15 3 12 -25
-11z"/>
<path d="M1579 4038 c7 -19 17 -23 57 -26 36 -2 45 0 34 8 -8 5 -27 10 -41 10
-15 0 -29 7 -33 15 -3 8 -10 15 -15 15 -7 0 -7 -9 -2 -22z"/>
<path d="M552 3653 c3 -106 6 -128 18 -128 10 0 17 13 20 40 5 39 6 40 55 47
58 8 85 34 85 82 -1 58 -45 86 -138 86 l-43 0 3 -127z m128 57 c15 -27 -21
-62 -58 -58 -23 3 -27 8 -30 41 l-3 37 40 0 c30 0 43 -5 51 -20z"/>
<path d="M810 3654 c0 -124 0 -125 23 -122 19 3 22 8 20 46 -2 38 0 42 21 42
18 0 30 -11 48 -42 17 -32 30 -44 51 -46 33 -4 33 -1 1 48 l-26 39 26 31 c29
35 31 48 15 84 -14 31 -56 46 -125 46 l-54 0 0 -126z m121 76 c21 -12 25 -40
7 -58 -7 -7 -29 -12 -50 -12 -36 0 -38 1 -38 33 0 19 3 37 7 40 10 10 52 8 74
-3z"/>
<path d="M1087 3773 c-4 -3 -7 -60 -7 -125 0 -111 1 -118 20 -118 19 0 20 7
20 125 0 98 -3 125 -13 125 -8 0 -17 -3 -20 -7z"/>
<path d="M1268 3764 c-37 -19 -58 -63 -58 -119 0 -38 6 -52 34 -82 30 -33 38
-37 85 -37 39 0 56 5 76 24 14 13 25 29 25 37 0 17 -30 16 -54 -2 -30 -23 -74
-18 -101 10 -42 41 -27 113 27 136 29 12 47 7 90 -23 22 -16 42 1 32 26 -16
41 -104 59 -156 30z"/>
<path d="M1517 3773 c-4 -3 -7 -60 -7 -125 l0 -118 80 0 c73 0 80 2 80 20 0
18 -7 20 -60 20 l-60 0 0 30 c0 29 1 30 50 30 43 0 50 3 50 20 0 17 -7 20 -50
20 -49 0 -50 1 -50 30 l0 30 60 0 c57 0 60 1 60 25 0 24 -2 25 -73 25 -41 0
-77 -3 -80 -7z"/>
<path d="M1927 3751 c-96 -85 -23 -249 100 -226 35 6 83 44 83 65 0 17 -40 11
-62 -10 -37 -35 -86 -22 -113 30 -22 42 -19 64 14 99 34 36 67 40 104 11 23
-18 57 -19 57 -1 0 23 -53 54 -98 59 -44 4 -52 1 -85 -27z"/>
<path d="M2239 3765 c-40 -22 -59 -58 -59 -114 0 -42 5 -56 31 -86 29 -32 35
-35 88 -35 88 0 132 45 129 132 -1 35 -8 50 -38 81 -32 32 -44 37 -81 37 -24
-1 -56 -7 -70 -15z m105 -36 c30 -14 50 -65 40 -103 -7 -31 -53 -66 -84 -66
-12 0 -35 14 -52 30 -27 27 -30 36 -25 73 9 67 59 94 121 66z"/>
<path d="M2517 3773 c-4 -3 -7 -60 -7 -125 0 -111 1 -118 20 -118 17 0 19 8
22 83 l3 82 38 -77 c20 -43 41 -78 46 -78 4 0 23 34 41 75 18 41 37 75 42 75
6 0 8 -32 6 -77 -2 -65 0 -78 13 -81 22 -4 29 25 29 130 0 102 -5 118 -34 118
-18 0 -29 -16 -60 -82 l-38 -81 -38 81 c-29 60 -44 82 -58 82 -10 0 -22 -3
-25 -7z"/>
<path d="M2860 3656 c0 -118 1 -126 19 -126 16 0 20 8 23 43 l3 42 47 3 c80 5
113 72 64 128 -20 24 -32 28 -90 32 l-66 4 0 -126z m126 63 c26 -29 8 -53 -45
-57 l-41 -3 0 40 c0 40 1 41 33 41 22 0 41 -8 53 -21z"/>
<path d="M3120 3673 c-23 -60 -46 -116 -51 -125 -7 -15 -5 -18 14 -18 16 0 28
9 35 25 10 22 18 25 65 25 48 0 55 -3 65 -25 7 -15 20 -25 32 -25 11 0 20 2
20 5 0 10 -82 211 -91 221 -5 6 -6 14 -2 17 3 4 -5 7 -19 7 -23 0 -30 -10 -68
-107z m94 -30 c7 -21 4 -23 -28 -23 -41 0 -44 9 -20 66 l17 39 12 -30 c7 -16
16 -40 19 -52z"/>
<path d="M3377 3773 c-4 -3 -7 -60 -7 -125 0 -118 0 -119 23 -116 18 2 23 10
25 46 4 59 32 58 68 -3 19 -34 32 -45 51 -45 26 0 26 0 -14 59 -23 33 -23 34
-4 47 47 34 42 105 -9 131 -26 13 -122 18 -133 6z m127 -55 c17 -27 -5 -52
-48 -56 l-36 -3 0 41 0 41 36 -3 c22 -2 42 -10 48 -20z"/>
<path d="M3640 3655 c0 -118 1 -125 20 -125 19 0 20 7 20 125 0 118 -1 125
-20 125 -19 0 -20 -7 -20 -125z"/>
<path d="M3805 3768 c-27 -15 -35 -28 -35 -60 0 -34 29 -61 81 -77 44 -13 58
-33 39 -56 -18 -21 -50 -19 -76 6 -16 15 -27 18 -39 12 -15 -9 -14 -13 8 -38
20 -24 32 -28 72 -28 38 0 52 4 67 22 38 48 14 101 -56 122 -49 14 -64 33 -44
56 12 14 35 14 86 -2 16 -6 22 -3 22 8 0 38 -80 60 -125 35z"/>
<path d="M4068 3764 c-61 -33 -79 -138 -32 -193 74 -88 224 -37 224 76 0 46
-32 106 -65 121 -35 16 -94 14 -127 -4z m116 -45 c24 -19 27 -27 24 -73 -3
-47 -6 -52 -39 -70 -31 -17 -40 -18 -66 -7 -17 7 -35 24 -42 37 -41 91 48 172
123 113z"/>
<path d="M4337 3773 c-4 -3 -7 -60 -7 -125 l0 -118 25 0 c24 0 24 2 27 82 l3
83 53 -83 c43 -67 57 -82 78 -82 l26 0 -3 108 c-3 123 -6 142 -25 142 -11 0
-14 -19 -14 -85 0 -47 -4 -85 -8 -85 -4 0 -25 30 -45 66 -53 91 -87 121 -110
97z"/>
<path d="M2558 3363 c12 -2 32 -2 45 0 12 2 2 4 -23 4 -25 0 -35 -2 -22 -4z"/>
<path d="M2453 3353 c9 -2 25 -2 35 0 9 3 1 5 -18 5 -19 0 -27 -2 -17 -5z"/>
<path d="M2728 3353 c6 -2 18 -2 25 0 6 3 1 5 -13 5 -14 0 -19 -2 -12 -5z"/>
<path d="M4495 3287 c-66 -40 -133 -78 -148 -86 -15 -8 -27 -18 -27 -23 0 -4
20 -18 44 -30 40 -19 44 -24 34 -42 -20 -37 -231 -240 -316 -304 -93 -70 -255
-165 -352 -207 -83 -36 -93 -45 -49 -45 73 0 305 103 459 204 102 67 248 185
319 259 l44 46 28 -19 c15 -11 34 -20 43 -20 20 0 37 65 35 133 -1 28 4 83 11
120 8 40 9 71 4 77 -5 5 -59 -21 -129 -63z"/>
<path d="M2408 3343 c7 -3 16 -2 19 1 4 3 -2 6 -13 5 -11 0 -14 -3 -6 -6z"/>
<path d="M2275 3306 c-150 -61 -244 -132 -351 -262 -37 -45 -136 -233 -129
-244 3 -4 -4 -35 -15 -68 -11 -33 -17 -68 -13 -78 6 -17 34 82 37 134 0 12 4
22 8 22 5 0 19 30 23 50 7 36 88 158 153 229 17 19 32 39 32 44 0 4 6 5 13 1
6 -4 9 -4 5 1 -19 20 173 139 290 180 37 13 58 23 47 23 -11 0 -56 -14 -100
-32z"/>
<path d="M595 3311 c-102 -42 -81 -199 32 -247 l32 -14 -6 -98 c-7 -114 1
-137 69 -197 24 -21 79 -71 123 -110 311 -279 312 -280 375 -265 22 5 197 186
265 275 27 34 46 113 25 100 -10 -6 -11 -2 -6 19 4 16 2 26 -4 26 -6 0 -8 -6
-4 -12 5 -9 2 -8 -10 1 -11 9 -13 17 -6 21 6 4 0 15 -15 28 -14 13 -31 20 -37
16 -6 -4 -8 -3 -5 3 8 12 -271 270 -286 265 -5 -1 -29 15 -53 38 -24 22 -40
40 -37 40 4 0 23 -15 43 -32 20 -18 12 -10 -17 19 -67 66 -107 79 -203 66 -66
-9 -71 -8 -91 13 -44 47 -129 67 -184 45z m101 -57 c19 -9 34 -21 34 -26 0 -6
-13 -26 -30 -45 -16 -18 -30 -40 -30 -48 0 -27 -19 -25 -49 6 -30 30 -40 70
-23 96 6 10 43 29 60 32 2 1 19 -6 38 -15z m90 -11 c13 -16 24 -32 24 -37 0
-6 -3 -6 -8 0 -4 5 -18 21 -31 37 -14 15 -21 27 -16 27 4 0 18 -12 31 -27z
m88 -99 c11 -4 16 -19 16 -44 0 -45 -28 -75 -64 -68 -14 3 -23 1 -20 -3 3 -5
1 -9 -3 -9 -18 0 -32 38 -23 66 4 16 9 21 9 12 1 -21 31 -24 49 -6 7 7 12 22
12 35 0 25 1 26 24 17z m384 -130 c123 -111 162 -150 112 -110 -54 43 -231
206 -224 206 3 0 54 -43 112 -96z"/>
<path d="M2412 3210 c-189 -50 -372 -196 -450 -360 -54 -115 -72 -194 -72
-322 0 -170 41 -295 136 -420 74 -96 190 -180 308 -224 27 -10 45 -19 39 -21
-15 -5 -149 53 -200 88 -135 91 -242 230 -283 364 -6 22 -14 47 -17 55 -4 8
-5 21 -4 29 1 7 -2 10 -9 6 -6 -4 -8 -15 -5 -25 3 -10 0 -22 -6 -26 -7 -4 -9
-3 -6 2 3 6 2 16 -4 24 -7 12 -9 11 -10 -5 -1 -11 -1 -23 0 -27 0 -4 -5 -5
-13 -2 -26 10 -39 61 -45 174 l-6 115 -8 -77 c-5 -42 -6 -86 -2 -97 3 -11 8
-39 10 -63 9 -94 12 -108 23 -121 7 -8 9 -16 6 -19 -7 -8 51 -132 88 -187 44
-66 154 -176 218 -220 288 -195 662 -197 955 -5 l26 17 48 -51 c27 -29 55 -52
63 -52 8 0 29 -15 46 -33 27 -27 31 -39 26 -63 -7 -38 27 -82 370 -482 85 -99
133 -132 189 -132 72 0 165 62 192 128 32 75 13 130 -70 202 -22 19 -78 71
-125 115 -342 320 -353 330 -383 331 -35 0 -90 54 -81 79 4 10 -12 35 -45 70
l-52 55 29 42 c36 54 44 68 39 68 -2 0 -20 -24 -39 -52 -20 -29 -63 -81 -97
-115 -59 -60 -147 -120 -158 -109 -3 3 -18 -1 -34 -9 -34 -18 -50 -19 -46 -3
1 6 -7 13 -18 15 -17 4 -18 2 -5 -7 13 -10 12 -11 -3 -6 -10 3 -23 6 -28 6 -5
0 -9 5 -9 11 0 5 5 7 10 4 6 -3 10 -1 10 4 0 6 8 11 18 11 14 0 15 2 2 10 -13
8 -12 10 3 10 9 0 17 4 17 8 0 5 21 24 48 43 114 82 209 213 259 357 32 94 43
259 22 356 -47 225 -205 415 -417 501 -140 57 -314 70 -450 35z m228 -210 c0
-35 4 -42 28 -51 101 -39 184 -107 197 -161 6 -24 3 -29 -21 -39 -45 -17 -104
-23 -105 -10 -1 6 -2 15 -3 20 -2 15 -68 71 -83 71 -10 0 -13 -27 -13 -117 l0
-118 76 -23 c60 -18 84 -32 119 -66 37 -38 44 -52 50 -99 9 -69 1 -103 -35
-160 -34 -54 -93 -96 -158 -112 l-47 -12 -5 -54 c-5 -53 -6 -54 -38 -57 -39
-4 -64 13 -61 42 4 59 1 62 -67 85 -98 32 -187 102 -168 132 4 7 3 9 -3 6 -11
-7 -23 13 -23 38 0 14 37 28 98 39 24 4 32 2 32 -9 0 -36 119 -122 134 -97 3
5 6 57 7 118 2 106 1 109 -22 120 -134 62 -162 80 -184 113 -27 40 -42 111
-30 138 8 19 11 28 13 51 1 7 6 10 12 7 5 -3 7 0 4 9 -3 9 11 32 35 59 36 39
63 55 149 88 18 7 22 16 22 49 l0 40 45 0 45 0 0 -40z m645 -1061 c4 -11 11
-17 16 -14 5 4 9 -3 9 -14 0 -28 -22 -26 -59 5 -33 28 -38 43 -19 62 14 14 43
-8 53 -39z m-835 -89 c20 -6 21 -8 5 -8 -11 0 -31 4 -45 8 -20 6 -21 8 -5 8
11 0 31 -4 45 -8z m909 -24 c14 -15 19 -26 12 -31 -6 -3 -11 -2 -11 3 0 4 -9
18 -20 30 -12 12 -17 22 -12 22 5 0 19 -11 31 -24z m-741 7 c-21 -2 -57 -2
-80 0 -24 2 -7 4 37 4 44 0 63 -2 43 -4z"/>
<path d="M2502 2820 c-44 -27 -68 -82 -51 -121 21 -51 98 -103 99 -66 0 6 2
56 3 110 1 61 -1 97 -8 97 -5 0 -25 -9 -43 -20z"/>
<path d="M2640 2354 c0 -102 2 -115 16 -110 9 3 21 6 28 6 6 0 25 12 41 28 25
22 30 35 30 72 0 53 -21 81 -77 105 l-38 15 0 -116z"/>
<path d="M4443 2873 c-10 -4 -13 -108 -13 -474 l0 -470 138 3 137 3 3 464 c2
365 0 466 -10 473 -14 8 -235 10 -255 1z"/>
<path d="M464 2768 c-26 -12 -44 -48 -44 -86 0 -26 18 -69 49 -117 12 -18 6
-31 -53 -119 -36 -54 -66 -109 -66 -121 0 -35 26 -69 300 -399 73 -88 77 -91
120 -94 44 -3 48 0 185 113 154 127 177 157 154 204 -19 39 -334 417 -362 435
-12 8 -42 17 -66 21 l-44 7 7 -36 c4 -20 2 -44 -4 -56 -8 -15 -8 -20 1 -18 20
5 34 -29 23 -59 -8 -23 -16 -29 -46 -31 -30 -3 -40 1 -53 22 -12 18 -15 35
-10 53 6 26 8 26 19 10 7 -9 24 -17 37 -17 18 0 20 3 11 12 -7 7 -12 30 -13
53 0 22 -7 56 -15 75 -8 19 -12 25 -10 13 3 -17 -1 -23 -14 -23 -9 0 -33 -11
-53 -24 -31 -21 -36 -22 -41 -8 -4 10 -13 28 -21 42 -16 27 -20 86 -6 94 4 3
7 -6 5 -19 -1 -14 2 -23 7 -19 5 3 9 14 9 24 0 10 8 23 17 28 13 8 25 1 56
-32 22 -22 35 -32 29 -21 -16 31 -63 75 -73 69 -5 -3 -9 1 -9 10 0 8 6 17 13
19 8 4 7 5 -3 6 -8 0 -25 -5 -36 -11z"/>
<path d="M4057 2588 c-16 -12 -17 -41 -15 -333 l3 -320 143 -3 142 -3 0 178
c0 98 3 241 6 318 9 182 14 175 -145 175 -78 0 -123 -4 -134 -12z"/>
<path d="M3650 2152 l0 -219 119 -7 c135 -8 169 -3 176 28 3 11 4 109 3 216
l-3 195 -147 3 -148 3 0 -219z"/>
<path d="M1483 2197 c-25 -14 -65 -50 -303 -267 -225 -205 -250 -233 -250
-272 0 -38 14 -60 95 -148 190 -206 211 -222 268 -201 14 6 138 122 275 258
210 208 251 254 256 283 7 42 -7 96 -23 92 -7 -1 -10 2 -6 8 8 13 -75 101 -88
93 -6 -3 -7 -1 -3 6 8 12 -91 128 -127 148 -12 7 -33 12 -47 12 -14 0 -35 -5
-47 -12z m101 -138 c54 -42 16 -121 -52 -105 -15 4 -32 7 -37 8 -6 1 -10 19
-10 41 0 29 7 44 24 58 30 24 42 24 75 -2z"/>
<path d="M425 1757 c-39 -38 -55 -61 -55 -79 0 -47 128 -188 171 -188 30 0 59
17 107 63 50 48 56 89 19 122 -13 11 -16 16 -8 10 9 -5 3 6 -13 25 -16 19 -34
34 -40 32 -6 -2 -8 0 -3 4 4 4 -5 20 -20 36 -20 21 -36 28 -65 28 -33 0 -46
-8 -93 -53z"/>
<path d="M2195 1630 c-16 -4 -64 -15 -105 -24 -186 -41 -206 -51 -237 -118
-23 -50 -118 -329 -128 -374 -6 -32 10 -94 46 -171 10 -24 19 -47 19 -53 0 -6
8 -29 19 -53 10 -23 32 -78 49 -122 120 -318 133 -345 184 -371 45 -23 75 -16
423 103 171 58 324 108 340 113 106 26 147 66 151 147 3 43 1 51 -5 33 -5 -14
-9 -18 -10 -9 -1 21 -260 668 -279 697 -13 20 -72 51 -362 191 -14 6 -17 9 -7
7 9 -3 17 -1 17 4 0 12 -72 12 -115 0z m15 -136 c22 -22 19 -90 -5 -108 -24
-18 -58 -20 -88 -5 -21 10 -21 10 -3 -5 11 -9 24 -16 30 -16 5 0 7 -3 4 -6 -4
-3 -19 1 -36 10 -29 15 -43 42 -41 81 1 16 2 16 9 -5 8 -25 8 -24 9 5 1 35 9
47 36 63 23 14 64 7 85 -14z"/>
<path d="M2438 1569 c68 -33 126 -59 128 -56 5 5 -224 117 -239 117 -7 -1 44
-28 111 -61z"/>
<path d="M2592 1497 c9 -7 30 -20 47 -29 17 -9 41 -38 55 -65 14 -26 25 -43
25 -38 1 24 -48 91 -84 117 -38 26 -78 40 -43 15z"/>
<path d="M2720 1345 c0 -5 5 -17 10 -25 5 -8 10 -10 10 -5 0 6 -5 17 -10 25
-5 8 -10 11 -10 5z"/>
<path d="M2740 1295 c0 -5 5 -17 10 -25 5 -8 10 -10 10 -5 0 6 -5 17 -10 25
-5 8 -10 11 -10 5z"/>
<path d="M2760 1245 c0 -5 5 -17 10 -25 5 -8 10 -10 10 -5 0 6 -5 17 -10 25
-5 8 -10 11 -10 5z"/>
<path d="M2780 1195 c0 -5 5 -17 10 -25 5 -8 10 -10 10 -5 0 6 -5 17 -10 25
-5 8 -10 11 -10 5z"/>
<path d="M2801 1140 c0 -8 8 -31 19 -50 24 -45 24 -28 0 25 -10 22 -19 33 -19
25z"/>
<path d="M2871 968 c-1 -12 31 -89 35 -85 3 2 -4 24 -15 48 -11 24 -20 41 -20
37z"/>
<path d="M2910 865 c0 -5 5 -17 10 -25 5 -8 10 -10 10 -5 0 6 -5 17 -10 25 -5
8 -10 11 -10 5z"/>
<path d="M2931 815 c1 -19 18 -51 18 -35 0 8 -4 22 -9 30 -5 8 -9 11 -9 5z"/>
</g>
</svg>
