<svg width="84" height="81" viewBox="0 0 84 81" fill="none" xmlns="http://www.w3.org/2000/svg">
<g clip-path="url(#clip0_241_160)">
<path d="M45.2137 28.8871V23.133L50.0262 20.5174C51.6304 19.6805 52.9208 18.4599 53.7577 17.0301C54.6296 15.5654 55.1178 13.6822 55.1178 11.8688V3.11552V0.5L53.7926 1.26722L48.2826 4.40584C46.783 5.27768 45.5624 6.49826 44.7255 7.8932C43.9234 9.32302 43.47 12.1129 43.47 13.8566V16.8208V19.1922L44.307 18.7389C44.865 18.425 45.2137 17.867 45.2137 17.2044V16.8208V13.8566C45.2137 12.4268 45.5624 11.0667 46.2599 9.91587C46.9225 8.76504 47.899 7.75371 49.1544 7.05623L53.3741 4.61508V11.8688C53.3741 13.3684 52.9905 14.7284 52.293 15.9141C51.5956 17.0998 50.5494 18.0763 49.259 18.8086L44.4116 21.3893C43.8188 21.7031 43.47 22.2611 43.47 22.9237V30.84L44.307 30.3867C44.865 30.1077 45.2137 29.5497 45.2137 28.8871ZM33.1823 20.5523L38.0297 23.133V28.8871C38.0297 29.5497 38.3785 30.1077 38.9713 30.4215L39.7734 30.8749V22.9586C39.7734 22.296 39.4247 21.7031 38.8667 21.4242L34.0193 18.8086C32.6941 18.1112 31.6479 17.1347 30.9504 15.949C30.2529 14.7633 29.8693 13.3684 29.8693 11.8688V4.64996L34.089 7.05623C35.3445 7.78858 36.3209 8.76504 37.0184 9.91587C37.681 11.0667 38.0297 12.4268 38.0297 13.8915V16.8208V17.2393C38.0297 17.867 38.3785 18.4599 38.9713 18.7738L39.7734 19.1922V16.8208V13.8915C39.7734 12.1129 39.3549 9.35789 38.518 7.92807C37.681 6.49826 36.4953 5.31255 34.9609 4.44072L29.4508 1.26722L28.1605 0.534874V3.15039V11.8688C28.1605 13.6822 28.6139 15.5654 29.4857 17.0301C30.3227 18.4599 31.613 19.6805 33.1823 20.5523ZM19.4421 25.609L22.0228 27.0737L24.0803 28.2594V27.3527C24.1152 26.6901 23.8013 26.0972 23.2085 25.7485L22.8946 25.5741L20.3488 24.1094C19.0934 23.3771 18.082 22.4006 17.4194 21.2149C16.7568 20.0641 16.4081 18.704 16.4081 17.2742V12.3919L22.6854 16.0187C23.9757 16.786 24.987 17.7973 25.6496 18.983C26.3122 20.2036 26.6609 21.5985 26.6261 23.0632L26.4517 28.5732C26.4168 29.2358 26.7307 29.8287 27.3235 30.1425L34.1588 34.0833L34.1936 33.1765C34.2285 32.514 33.9147 31.9211 33.3218 31.6072L28.3349 28.7127L28.5092 23.2376C28.579 21.4241 28.1605 19.7153 27.3584 18.2507C26.5215 16.786 25.1265 15.4259 23.5572 14.5192L15.9896 10.16L13.7228 8.83479V10.3344L13.688 16.6813C13.6531 18.4599 14.1065 20.099 14.9434 21.5288C15.7455 22.9586 17.9426 24.7371 19.4421 25.609ZM10.0611 37.8845C11.6304 38.7912 13.4787 39.3143 15.1875 39.3143C16.8615 39.2794 18.5354 38.7912 20.1047 37.8496L24.7778 34.9551L29.7298 37.8147C30.3227 38.1286 30.9853 38.1286 31.5432 37.7799L32.3453 37.2916L25.4752 33.316C24.8824 33.0022 24.2547 33.0022 23.6618 33.3509L18.9888 36.2454C17.7333 37.0475 16.3732 37.466 14.9783 37.466C13.6182 37.5009 12.2233 37.1173 10.933 36.3849L4.65571 32.7581L8.87542 30.3169C10.1309 29.5846 11.4561 29.2358 12.8161 29.2358C14.1413 29.2358 15.5014 29.5846 16.7568 30.3169L19.3026 31.7816L19.6514 31.9908C20.2093 32.3047 20.8719 32.3047 21.4299 31.956L22.232 31.4677L20.1745 30.282L17.6287 28.8173C16.0942 27.9106 13.4787 26.9342 11.8048 26.9342C10.1657 26.9342 8.52668 27.3875 6.99224 28.2594L1.51709 31.4677L0.191895 32.235L2.45868 33.5253L10.0611 37.8845ZM28.3698 52.3221L33.3567 49.4625C33.9147 49.1486 34.2285 48.5558 34.1936 47.8932V46.9516L27.3235 50.9272C26.7656 51.2411 26.4517 51.8339 26.4517 52.4965L26.6261 57.9717C26.6609 59.4712 26.3471 60.8662 25.6496 62.0519C24.987 63.2724 23.9757 64.2838 22.6854 65.051L16.443 68.643L16.4081 63.7956C16.4081 62.3309 16.7568 61.0057 17.4194 59.82C18.082 58.6691 19.0585 57.6927 20.3488 56.9603L22.8946 55.4956L23.2433 55.2864C23.8013 54.9725 24.1152 54.3797 24.1152 53.7171L24.0803 52.7755L22.0228 53.9612L19.477 55.4608C17.9426 56.3326 15.7804 58.1112 14.9434 59.5061C14.1065 60.9359 13.688 62.6099 13.688 64.3535L13.7228 70.7005V72.2001L15.9896 70.9098L23.5572 66.5506C25.1265 65.6439 26.5215 64.2838 27.3584 62.8191C28.1954 61.3195 28.579 59.6107 28.5441 57.8322L28.3698 52.3221ZM20.1745 50.7528L22.232 49.5671L21.4299 49.0789C20.8719 48.7302 20.2093 48.7302 19.6514 49.044L19.3026 49.2533L16.7568 50.718C15.5014 51.4503 14.1413 51.8339 12.8161 51.799C11.4909 51.799 10.1309 51.4503 8.87542 50.718L4.69059 48.2768L10.933 44.65C12.2233 43.8827 13.6182 43.534 15.0132 43.5689C16.3732 43.5689 17.7682 43.9874 19.0236 44.7895L23.6967 47.684C24.2547 48.0327 24.9173 48.0327 25.4752 47.7188L32.3453 43.7432L31.5432 43.255C30.9853 42.9063 30.3227 42.9063 29.7647 43.2201L24.7778 46.0798L20.1047 43.1853C18.5703 42.2437 16.8963 41.7554 15.1875 41.7206C13.5136 41.6857 11.6304 42.2437 10.0611 43.1504L2.49355 47.5096L0.226768 48.8348L1.55196 49.5671L7.02712 52.7755C8.56156 53.6822 10.2006 54.1007 11.8397 54.1356C13.4787 54.1356 16.1291 53.1242 17.6287 52.2524L20.1745 50.7528ZM50.0611 60.4826L45.2486 57.867V52.1478C45.2486 51.4852 44.8998 50.8923 44.307 50.6133L43.5049 50.16V58.0763C43.5049 58.7389 43.8188 59.2969 44.4116 59.6107L49.259 62.1914C50.5494 62.9237 51.5956 63.9002 52.3279 65.0859C53.0254 66.2716 53.409 67.6317 53.409 69.1312V76.3849L49.1893 73.9438C47.9338 73.2463 46.9225 72.2698 46.2599 71.0841C45.5973 69.9333 45.2137 68.6081 45.2137 67.1434V64.1792V63.7956C45.2137 63.133 44.865 62.575 44.307 62.2611L43.47 61.8426V64.1792V67.1434C43.47 68.8871 43.9234 71.677 44.7603 73.1068C45.5624 74.5366 46.783 75.7223 48.3174 76.5942L53.8275 79.7677L55.1178 80.5V77.8845V69.1312C55.1178 67.3527 54.6644 65.4346 53.7926 64.0048C52.9208 62.5401 51.6653 61.3195 50.0611 60.4826ZM38.0646 52.1478V57.867L33.2172 60.4826C31.613 61.3195 30.3575 62.5401 29.4857 64.0048C28.6139 65.4346 28.1605 67.3527 28.1605 69.1312V77.8845V80.5L29.4508 79.7677L34.9609 76.5942C36.4953 75.7223 37.7159 74.5017 38.518 73.1068C39.3549 71.677 39.8083 68.8871 39.8083 67.1434V64.1792V61.8426L38.9713 62.2611C38.4133 62.575 38.0646 63.133 38.0646 63.7956V64.1792V67.1434C38.0646 68.6081 37.681 69.9333 37.0184 71.0841C36.3558 72.2698 35.3445 73.2463 34.089 73.9438L29.8693 76.3849V69.1312C29.8693 67.6317 30.2529 66.2716 30.9504 65.0859C31.6827 63.9002 32.729 62.9237 34.0193 62.1914L38.8667 59.6107C39.4596 59.2969 39.7734 58.7389 39.7734 58.0763V50.16L38.9713 50.6133C38.4133 50.8923 38.0646 51.4852 38.0646 52.1478ZM80.7848 47.4747L73.2172 43.1155C71.6479 42.2088 69.7647 41.6857 68.0908 41.6857C66.382 41.7206 64.708 42.2088 63.1736 43.1853L58.5005 46.0798L53.5136 43.1853C52.9556 42.8714 52.293 42.8714 51.7351 43.2201L50.933 43.7084L57.8031 47.684C58.361 47.9978 59.0236 47.9978 59.5816 47.6491L64.2547 44.7546C65.5101 43.9525 66.9051 43.5689 68.2651 43.534C69.6252 43.534 71.0201 43.8827 72.3105 44.6151L78.5877 48.2419L74.4029 50.6831C73.1474 51.4154 71.7874 51.7642 70.4622 51.7642C69.1021 51.7642 67.7769 51.4154 66.5215 50.6831L63.9408 49.2184L63.6269 49.044C63.0341 48.6953 62.4064 48.7302 61.8135 49.044L61.0463 49.5323L63.1038 50.718L65.6496 52.2175C67.1841 53.0894 69.7996 54.1007 71.4386 54.1007C73.0777 54.0658 74.7168 53.6473 76.2512 52.7406L81.7612 49.5323L83.0515 48.7999L80.7848 47.4747ZM63.8362 55.391L61.2555 53.8915L59.198 52.7058V53.6473C59.1631 54.3099 59.477 54.9028 60.0698 55.2167L60.3837 55.4259L62.9644 56.8906C64.2198 57.6229 65.1963 58.5994 65.8589 59.7502C66.5215 60.901 66.8702 62.2611 66.8702 63.7258V68.5732L60.5929 64.9464C59.3026 64.214 58.2913 63.1678 57.6287 61.9821C56.9661 60.7964 56.6174 59.4015 56.6522 57.9019L56.8266 52.3919C56.8615 51.7293 56.5476 51.1713 55.9548 50.8226L49.0847 46.8819V47.8235C49.0498 48.486 49.3637 49.044 49.9216 49.3928L54.9086 52.2524L54.7342 57.7276C54.6644 59.541 55.0829 61.2498 55.9199 62.7493C56.722 64.214 58.1518 65.5741 59.6862 66.4808L67.2538 70.84L69.5206 72.1303L69.5555 70.6308V64.2838C69.5903 62.5401 69.137 60.8662 68.3349 59.4364C67.5328 58.0065 65.3358 56.2629 63.8362 55.391ZM54.9434 28.643L49.9565 31.5375C49.3985 31.8514 49.0498 32.4442 49.0847 33.1068L49.1195 34.0135L55.9896 30.0728C56.5476 29.7241 56.8615 29.1661 56.8615 28.5035L56.6871 22.9935C56.6174 21.5288 56.9661 20.1338 57.6287 18.9133C58.2913 17.7276 59.3026 16.7162 60.6278 15.949L66.8702 12.3221L66.9051 17.2044C66.9051 18.6343 66.5563 19.9943 65.8937 21.1452C65.2311 22.3309 64.2198 23.3073 62.9644 24.0397L60.4186 25.5044L60.0698 25.6787C59.5119 26.0275 59.1631 26.5854 59.198 27.248L59.2329 28.1896L61.2904 27.0039L63.8362 25.5392C65.3706 24.6674 67.5328 22.8888 68.3698 21.459C69.1719 20.0292 69.6252 18.3901 69.5903 16.6116V10.2646L69.5555 8.76504L67.2887 10.0902L59.7211 14.4494C58.1867 15.3561 56.7569 16.7162 55.9548 18.1809C55.1178 19.6456 54.6993 21.3544 54.7691 23.1678L54.9434 28.643ZM63.1038 30.1774L61.0812 31.3631L61.8484 31.8514C62.4064 32.2001 63.069 32.235 63.6618 31.8862L63.9757 31.677L66.5563 30.2123C67.8118 29.5148 69.1719 29.1312 70.497 29.1312C71.8222 29.1312 73.1823 29.5148 74.4378 30.2472L78.6226 32.6883L72.3453 36.2803C71.055 37.0475 69.6601 37.3963 68.3 37.3963C66.9399 37.3614 65.545 36.9429 64.2896 36.1757L59.6165 33.2812C59.0585 32.8976 58.3959 32.8976 57.8379 33.2463L50.9678 37.187L51.7699 37.6752C52.3279 38.024 52.9905 38.0588 53.5485 37.7101L58.5354 34.8505L63.2085 37.745C64.7429 38.6866 66.4168 39.1748 68.1256 39.2097C69.7996 39.2446 71.6827 38.6866 73.2521 37.7799L80.7848 33.4207L83.0864 32.0955L81.7612 31.3631L76.2861 28.1548C74.7516 27.248 73.1126 26.8296 71.4386 26.8296C69.7996 26.8296 67.1841 27.806 65.6496 28.6779L63.1038 30.1774Z" fill="#8A1B61"/>
</g>
<defs>
<clipPath id="clip0_241_160">
<rect width="82.8945" height="80" fill="white" transform="translate(0.191895 0.5)"/>
</clipPath>
</defs>
</svg>
